/* XPM */
static char *d117d69b2fc04350e7afb864c0ed7fd6BrsM9HzbeznPjluU[] = {
/* columns rows colors chars-per-pixel */
"68 66 78 1 ",
"  c black",
". c #020202",
"X c #040404",
"o c gray3",
"O c gray4",
"+ c #0C0C0C",
"@ c #101010",
"# c gray7",
"$ c #161616",
"% c #181818",
"& c gray11",
"* c #1E1E1E",
"= c #202020",
"- c #222222",
"; c gray15",
": c #282828",
"> c #2C2C2C",
", c #323232",
"< c #343434",
"1 c #3A3A3A",
"2 c #3E3E3E",
"3 c gray25",
"4 c #444444",
"5 c #484848",
"6 c gray33",
"7 c #565656",
"8 c #585858",
"9 c #5A5A5A",
"0 c gray36",
"q c gray37",
"w c #606060",
"e c #646464",
"r c gray40",
"t c #686868",
"y c #6A6A6A",
"u c #6C6C6C",
"i c gray44",
"p c gray47",
"a c #7C7C7C",
"s c #808080",
"d c #888888",
"f c gray54",
"g c gray55",
"h c #8E8E8E",
"j c #909090",
"k c gray58",
"l c #989898",
"z c #9A9A9A",
"x c #A0A0A0",
"c c #ACACAC",
"v c #B4B4B4",
"b c #B6B6B6",
"n c gray72",
"m c gray73",
"M c #BCBCBC",
"N c gray",
"B c gray77",
"V c #CACACA",
"C c gray80",
"Z c #D0D0D0",
"A c #D2D2D2",
"S c gray83",
"D c #DADADA",
"F c gainsboro",
"G c gray87",
"H c gray88",
"J c #E2E2E2",
"K c #E4E4E4",
"L c #E6E6E6",
"P c gray91",
"I c #EAEAEA",
"U c #ECECEC",
"Y c #EEEEEE",
"T c #F6F6F6",
"R c #F8F8F8",
"E c gray98",
"W c gray99",
"Q c white",
/* pixels */
"QQQQQQQQQQQQQQQQQQQQQQQQQQQQQQQQQQQQQQQQQQQQQQQQQQQQQQQQQQQQQQQQQQQQ",
"QQQQQQQQQQQQQQQQQQQQQQQQQQQQQQQQQQQQQQQQQQQQQQQQQQQQQQQQQQQQQQQQQQQQ",
"QQQQQQQQQQQQQQQQQQQQQQQQQQQQQQQQQQQQQQQQQQQQQQQQQQQQQQQQQQQQQQQQQQQQ",
"QQQQQQQQQQQQQQQQQQQQQQQQQQQQQQQQQQQQQQQQQQQQQQQQQQQQQQQQQQQQQQQQQQQQ",
"QQQQQQQQQQQQQQQQQQQQQQQQQQQQQQQQQQQQQQQQQQQQQQQQQQQQQQQQQQQQQQQQQQQQ",
"QQQQQQQQQQQQQQQQQQQQQQQQQQQQQQQQQQQQQQQQQQQQQQQQQQQQQQQQQQQQQQQQQQQQ",
"QQQQQQQQQQQQQQQQQQQQQQQQQQQQQQQQQQQQQQQQQQQQQQQQQQQQQQQQQQQQQQQQQQQQ",
"QQQQQQQQQQQQQQQQQQQQQQQQQQQQQQQQQQQQQQQQQQQQQQQQQQQQQQQQQQQQQQQQQQQQ",
"QQQQQQQQQQQQQQQQQQQQQQQQQQQQQQQQQQQQQQQQQQQQQQQQQQQQQQQQQQQQQQQQQQQQ",
"QQQQQQQQQQQQQQQQQQQQQQQQQQQQQQQQQQQQQQQQQQQQQQQQQQQQQQQQQQQQQQQQQQQQ",
"QQQQQQQQQQQQQQQQQQQQQQQQQQQQQQQQQQQQQQQQQQQQQQQQQQQQQQQQQQQQQQQQQQQQ",
"QQQQQQQQQQQQQQQQQQQQQQQQQQQQQQQQQQQQQQQQQQQQQQQQQQQQQQQQQQQQQQQQQQQQ",
"QQQQQQQQQQQQQQQQQQQQQQQQQQQQQQQQQc30fLQQQQQQQQQQQQQQQQQQQQQQQQQQQQQQ",
"QQQQQQQQQQQQQQQQQQQQQQQQQQQQQQQQQl   fQQQQQQQQQQQQQQQQQQQQQQQQQQQQQQ",
"QQQQQQQQQQQQQQQQQQQQQQQQQQQQQQQQQl oZQQQQQQQQQQQQlQQQQQQQQQQQQQQQQQQ",
"QQQQQQQQQQQQQQQQQQQQQQQQQQQQQQQQQl +QQQQQQQQQQQQs 8QQQQQQQQQQQQQQQQQ",
"QQQQQQQQQQQQQQQQQQQQQQQQQQQQQQQQQl +QQQQQQQQQQQv   0QQQQQQQQQQQQQQQQ",
"QQQQQQQQQQQQQQQQQY#                                XGQQQQQQQQQQQQQQQ",
"QQQQQQQQQQQQQQQQQQQQQQQQQQQQQQQQQl +QQQQQQQQQQQQQQQQQQQQQQQQQQQQQQQQ",
"QQQQQQQQQQQQQQQQQQQQQQQQQQQQQQQQQl +QQQQQQQQQQQQQQQQQQQQQQQQQQQQQQQQ",
"QQQQQQQQQQQQQQQQQQQQQQQQQQQQQQQQQl +QQQQQQQQQQkYQQQQQQQQQQQQQQQQQQQQ",
"QQQQQQQQQQQQQQQQQQQQQQ1wVQQQQQQQQl +QQQQQQQQQa *SQQQQQQQQQQQQQQQQQQQ",
"QQQQQQQQQQQQQQQQQQQQQQ>                         ,QQQQQQQQQQQQQQQQQQQ",
"QQQQQQQQQQQQQQQQQQQQQQ> gQQQQQQQQl +QQQQQQQQQe -ZQQQQQQQQQQQQQQQQQQQ",
"QQQQQQQQQQQQQQQQQQQQQQ> gQQQQQQQQl +QQQQQQQQQe 0QQQQQQQQQQQQQQQQQQQQ",
"QQQQQQQQQQQQQQQQQQQQQQ> gQQQQQQQQl +QQQQQQQQQe 0QQQQQQQQQQQQQQQQQQQQ",
"QQQQQQQQQQQQQQQQQQQQQQ> gQQQQQQQQl +QQQQQQQQQe 0QQQQQQQQQQQQQQQQQQQQ",
"QQQQQQQQQQQQQQQQQQQQQQ>                        0QQQQQQQQQQQQQQQQQQQQ",
"QQQQQQQQQQQQQQQQQQQQQQ> gQQQQQQQQl +QQQQQQQQQe 0QQQQQQQQQQQQQQQQQQQQ",
"QQQQQQQQQQQQQQQQQQQQQQ> gQQQQQQQQl +QQQQQQQQQe 0QQQQQQQQQQQQQQQQQQQQ",
"QQQQQQQQQQQQQQQQQQQQQQ> gQQQQQQQQl +QQQQQQQQQe 0QQQQQQQQQQQQQQQQQQQQ",
"QQQQQQQQQQQQQQQQQQQQQQ> gQQQQQQQQl +QQQQQQQQQe 0QQQQQQQQQQQQQQQQQQQQ",
"QQQQQQQQQQQQQQQQQQQQQQ> gQQQQQQQQl +QQQQQQQQQe 0QQQQQQQQQQQQQQQQQQQQ",
"QQQQQQQQQQQQQQQQQQQQQQ>                        0QQQQQQQQQQQQQQQQQQQQ",
"QQQQQQQQQQQQQQQQQQQQQQ> gQQQQQQT<   -ZQQQQQQQe 0QQQQQQQQQQQQQQQQQQQQ",
"QQQQQQQQQQQQQQQQQQQQQQ> gQQQQQQ6   +uoxQQQQQQe 0QQQQQQQQQQQQQQQQQQQQ",
"QQQQQQQQQQQQQQQQQQQQQQQQQQQQQQt o6 +Qw tRQQQQQQQQQQQQQQQQQQQQQQQQQQQ",
"QQQQQQQQQQQQQQQQQQQQQQQQQQQQQi #Bl +QQu ;mQQQQQQQQQQQQQQQQQQQQQQQQQQ",
"QQQQQQQQQQQQQQQQQQQQQQQQQQQR0 %ZQl +QQQf  6LQQQQQQQQQQQQQQQQQQQQQQQQ",
"QQQQQQQQQQQQQQQQQQQQQQQQQQI3 ,GQQl +QQQQv# +aIQQQQQQQQQQQQQQQQQQQQQQ",
"QQQQQQQQQQQQQQQQQQQQQQQQQB* iRQQQl +QQQQQJ2  ouJQQQQQQQQQQQQQQQQQQQQ",
"QQQQQQQQQQQQQQQQQQQQQQQRp $vQQQQQl +QQQQQQQj+  X8mQQQQQQQQQQQQQQQQQQ",
"QQQQQQQQQQQQQQQQQQQQQQN:XtIQQQQQQl +QQQQQQQQJ6    %iCQQQQQQQQQQQQQQQ",
"QQQQQQQQQQQQQQQQQQQQD6 5SQQQQQQQQl +QQQQQQQQQQB3    -IQQQQQQQQQQQQQQ",
"QQQQQQQQQQQQQQQQQQJeX1mQQQQQQQQQQl +QQQQQQQQQQQQN4 +GQQQQQQQQQQQQQQQ",
"QQQQQQQQQQQQQQQQI8o8VQQQQQQQQQQQQl +QQQQQQQQQQQQQQZvQQQQQQQQQQQQQQQQ",
"QQQQQQQQQQQQQQQQRgLQQQQQQQQQQQQQQl +QQQQQQQQQQQQQQQQQQQQQQQQQQQQQQQQ",
"QQQQQQQQQQQQQQQQQQQQQQQQQQQQQQQQQl +QQQQQQQQQQQQQQQQQQQQQQQQQQQQQQQQ",
"QQQQQQQQQQQQQQQQQQQQQQQQQQQQQQQQQQQQQQQQQQQQQQQQQQQQQQQQQQQQQQQQQQQQ",
"QQQQQQQQQQQQQQQQQQQQQQQQQQQQQQQQQQQQQQQQQQQQQQQQQQQQQQQQQQQQQQQQQQQQ",
"QQQQQQQQQQQQQQQQQQQQQQQQQQQQQQQQQQQQQQQQQQQQQQQQQQQQQQQQQQQQQQQQQQQQ",
"QQQQQQQQQQQQQQQQQQQQQQQQQQQQQQQQQQQQQQQQQQQQQQQQQQQQQQQQQQQQQQQQQQQQ",
"QQQQQQQQQQQQQQQQQQQQQQQQQQQQQQQQQQQQQQQQQQQQQQQQQQQQQQQQQQQQQQQQQQQQ",
"QQQQQQQQQQQQQQQQQQQQQQQQQQQQQQQQQQQQQQQQQQQQQQQQQQQQQQQQQQQQQQQQQQQQ",
"QQQQQQQQQQQQQQQQQQQQQQQQQQQQQQQQQQQQQQQQQQQQQQQQQQQQQQQQQQQQQQQQQQQQ",
"QQQQQQQQQQQQQQQQQQQQQQQQQQQQQQQQQQQQQQQQQQQQQQQQQQQQQQQQQQQQQQQQQQQQ",
"QQQQQQQQQQQQQQQQQQQQQQQQQQQQQQQQQQQQQQQQQQQQQQQQQQQQQQQQQQQQQQQQQQQQ",
"QQQQQQQQQQQQQQQQQQQQQQQQQQQQQQQQQQQQQQQQQQQQQQQQQQQQQQQQQQQQQQQQQQQQ",
"QQQQQQQQQQQQQQQQQQQQQQQQQQQQQQQQQQQQQQQQQQQQQQQQQQQQQQQQQQQQQQQQQQQQ",
"QQQQQQQQQQQQQQQQQQQQQQQQQQQQQQQQQQQQQQQQQQQQQQQQQQQQQQQQQQQQQQQQQQQQ",
"QQQQQQQQQQQQQQQQQQQQQQQQQQQQQQQQQQQQQQQQQQQQQQQQQQQQQQQQQQQQQQQQQQQQ",
"QQQQQQQQQQQQQQQQQQQQQQQQQQQQQQQQQQQQQQQQQQQQQQQQQQQQQQQQQQQQQQQQQQQQ",
"QQQQQQQQQQQQQQQQQQQQQQQQQQQQQQQQQQQQQQQQQQQQQQQQQQQQQQQQQQQQQQQQQQQQ",
"QQQQQQQQQQQQQQQQQQQQQQQQQQQQQQQQQQQQQQQQQQQQQQQQQQQQQQQQQQQQQQQQQQQQ",
"QQQQQQQQQQQQQQQQQQQQQQQQQQQQQQQQQQQQQQQQQQQQQQQQQQQQQQQQQQQQQQQQQQQQ",
"QQQQQQQQQQQQQQQQQQQQQQQQQQQQQQQQQQQQQQQQQQQQQQQQQQQQQQQQQQQQQQQQQQQQ"
};
