/* XPM */
static char *c7db8a1c848f4ceae85ffc9178834115PKupifh1RdJmYc01[] = {
/* columns rows colors chars-per-pixel */
"66 66 84 1 ",
"  c black",
". c #020202",
"X c #040404",
"o c #060606",
"O c gray3",
"+ c gray4",
"@ c #0C0C0C",
"# c #0E0E0E",
"$ c #101010",
"% c gray8",
"& c #161616",
"* c #181818",
"= c gray10",
"- c #1E1E1E",
"; c #202020",
": c gray15",
"> c #282828",
", c gray18",
"< c gray19",
"1 c gray21",
"2 c gray22",
"3 c #3E3E3E",
"4 c gray25",
"5 c #464646",
"6 c #484848",
"7 c gray29",
"8 c #4C4C4C",
"9 c #4E4E4E",
"0 c #505050",
"q c gray32",
"w c #565656",
"e c #606060",
"r c #626262",
"t c gray40",
"y c gray43",
"u c gray44",
"i c #727272",
"p c #747474",
"a c #7C7C7C",
"s c #7E7E7E",
"d c #808080",
"f c gray51",
"g c #868686",
"h c #888888",
"j c gray55",
"k c #8E8E8E",
"l c #909090",
"z c gray58",
"x c #989898",
"c c #A0A0A0",
"v c #A4A4A4",
"b c gray65",
"n c #AAAAAA",
"m c #AEAEAE",
"M c gray69",
"N c #B4B4B4",
"B c #B6B6B6",
"V c gray72",
"C c gray73",
"Z c #C6C6C6",
"A c #C8C8C8",
"S c #CACACA",
"D c gray80",
"F c #CECECE",
"G c #D2D2D2",
"H c gray83",
"J c gray84",
"K c #D8D8D8",
"L c #DADADA",
"P c gainsboro",
"I c gray88",
"U c #E4E4E4",
"Y c #E6E6E6",
"T c gray91",
"R c #EAEAEA",
"E c #ECECEC",
"W c gray94",
"Q c gray95",
"! c #F4F4F4",
"~ c #F6F6F6",
"^ c #F8F8F8",
"/ c gray98",
"( c gray99",
") c white",
/* pixels */
"))))))))))))))))))))))))))))))))))))))))))))))))))))))))))))))))))",
"))))))))))))))))))))))))))))))))))))))))))))))))))))))))))))))))))",
"))))))))))))))))))))))))))))))))))))))))))))))))))))))))))))))))))",
"))))))))))))))))))))))))))))))))))))))))))))))))))))))))))))))))))",
"))))))))))))))))))))))))))))))))))))))))))))))))))))))))))))))))))",
"))))))))))))))))))))))))))))))))))))))))))))))))))))))))))))))))))",
"))))))))))))))))))))))))))))))))))))))))))))))))))))))))))))))))))",
"))))))))))))))))))))))))))))))))))))))))))))))))))))))))))))))))))",
"))))))))))))))))))))))))))))))))))))))))))))))))))))))))))))))))))",
"))))))))))))))))))))))))))))))))))))))))))))))))))))))))))))))))))",
"))))))))))))))))))))))))))))))))))))))))))))))))))))))))))))))))))",
"))))))))))))))))))))))))))))))))))))))))))))))))))))))))))))))))))",
"))))))))))))))))))))))))))))UU/))))))JT)))))))))))))))))))))))))))",
"))))))))))))))))))))))))))))4  <J)))/  @9~))))))))))))))))))))))))",
"))))))))))))))))))))))))))))4 orQ)))/  $a)))))))))))))))))))))))))",
"))))))))))))))))))))))))))))4 0)))))/  c))))))))))))))))))))))))))",
"))))))))))))))))))))))))))))4 0)))))/  c))))))))))))))))))))))))))",
"))))))))))))))))))))))))))))4 0)))))/  c))))))))))))))))))))))))))",
"))))))))))))))))))))))))))))4 0)))))/  c))))))))))))))))))))))))))",
"))))))))))))))))))))))))))))4 0)))))/  c))))))))))))))))))))))))))",
"))))))))))))))))))))))))))))4 0)))))/  c)))))))N0T))))))))))))))))",
"))))))))))))))))))))))))))))4 0)))))/  c))))))S+ -J)))))))))))))))",
"))))))))))))))))))))))))))))4 0)))))/  c)))))F&   3)))))))))))))))",
"))))))))))))))))))j           0)))))/  c))))Z$  fT))))))))))))))))",
"))))))))))))))))))))))))))))4 0)))))/  c)))M@ &C))))))))))))))))))",
"))))))))))))))))))))))))))))4 0)))))/  c))g  0T)))))))))))))))))))",
"))))))))))))))))))))))))))))4 0)))))/  cE9 *b)))))))))))))))))))))",
"))))))))))))))))))))))))))))4 0)))))/  r*ouQ))))))))))))))))))))))",
"))))))))))))))))))))))))))))4 0)))))/   wL))))))))))))))))))))))))",
"))))))))))))))))))))))))))))4 0)))))/  l))))))))))))))))))))))))))",
"))))))))))))))))))))))))))))4 0)))))/  c))))))))))))))))))))))))))",
"))))))))))))))))))))))))))))4 0)))))/  c))))))))))))))))))))))))))",
"))))))))))))))))))))))))))))4 0)))))/  c))))))))))))))))))))))))))",
"))))))))))))))))))))))))))))4 0)))))/  c))))))))))))))))))))))))))",
")))))))))))))))))))))))))))C* 0)))))/  c))))))))))))))))))))))))))",
")))))))))))))))))))))))))N2 + 0)))))/  c))))))))))))))))))))))))))",
"))))))))))))))))))))))~x> ;C4 0)))))/  c)))))))))Q>Q))))))))))))))",
"))))))))))))))))))))St@  y~)4 0)))))/  c)))))))))P T))))))))))))))",
")))))))))))))))))La:   1S)))4 0)))))/  c)))))))))Z T))))))))))))))",
")))))))))))))))))u   -b)))))4 0)))))/  c)))))))))m U))))))))))))))",
")))))))))))))))))G  a/))))))4 0)))))/  c)))))))))z I))))))))))))))",
"))))))))))))))))))4 ~)))))))4 0)))))/  c)))))))))p F))))))))))))))",
"))))))))))))))))))F2))))))))4 0)))))/  c)))))))))6 n))))))))))))))",
"))))))))))))))))))))))))))))4 0)))))/  j))))))))/$ 9))))))))))))))",
"))))))))))))))))))))))))))))4 0))))))+ ,GQ)))/QJr   6)))))))))))))",
"))))))))))))))))))))))))))))4 0))))))0              f)))))))))))))",
"))))))))))))))))))))))))))))4 0))))))Ef6>&+   o@&>5h/)))))))))))))",
"))))))))))))))))))))))))))))4 0)))))))))))))))))))))))))))))))))))",
"))))))))))))))))))))))))))))))))))))))))))))))))))))))))))))))))))",
"))))))))))))))))))))))))))))))))))))))))))))))))))))))))))))))))))",
"))))))))))))))))))))))))))))))))))))))))))))))))))))))))))))))))))",
"))))))))))))))))))))))))))))))))))))))))))))))))))))))))))))))))))",
"))))))))))))))))))))))))))))))))))))))))))))))))))))))))))))))))))",
"))))))))))))))))))))))))))))))))))))))))))))))))))))))))))))))))))",
"))))))))))))))))))))))))))))))))))))))))))))))))))))))))))))))))))",
"))))))))))))))))))))))))))))))))))))))))))))))))))))))))))))))))))",
"))))))))))))))))))))))))))))))))))))))))))))))))))))))))))))))))))",
"))))))))))))))))))))))))))))))))))))))))))))))))))))))))))))))))))",
"))))))))))))))))))))))))))))))))))))))))))))))))))))))))))))))))))",
"))))))))))))))))))))))))))))))))))))))))))))))))))))))))))))))))))",
"))))))))))))))))))))))))))))))))))))))))))))))))))))))))))))))))))",
"))))))))))))))))))))))))))))))))))))))))))))))))))))))))))))))))))",
"))))))))))))))))))))))))))))))))))))))))))))))))))))))))))))))))))",
"))))))))))))))))))))))))))))))))))))))))))))))))))))))))))))))))))",
"))))))))))))))))))))))))))))))))))))))))))))))))))))))))))))))))))",
"))))))))))))))))))))))))))))))))))))))))))))))))))))))))))))))))))"
};
