/* XPM */
static char *_62a7eee43774fd092ce0c9a06de0fe3M1io4XgDwI0vHJeu[] = {
/* columns rows colors chars-per-pixel */
"67 67 75 1 ",
"  c black",
". c #020202",
"X c #040404",
"o c #060606",
"O c gray3",
"+ c #0C0C0C",
"@ c #0E0E0E",
"# c #101010",
"$ c gray7",
"% c gray8",
"& c #202020",
"* c #222222",
"= c gray14",
"- c #2C2C2C",
"; c gray18",
": c gray19",
"> c #323232",
", c #3A3A3A",
"< c #3C3C3C",
"1 c #3E3E3E",
"2 c gray26",
"3 c gray29",
"4 c #4C4C4C",
"5 c #4E4E4E",
"6 c gray32",
"7 c gray33",
"8 c #565656",
"9 c #585858",
"0 c gray36",
"q c gray37",
"w c #606060",
"e c #646464",
"r c #6C6C6C",
"t c gray43",
"y c gray44",
"u c #7C7C7C",
"i c #7E7E7E",
"p c gray51",
"a c #848484",
"s c gray54",
"d c #909090",
"f c #9A9A9A",
"g c gray61",
"h c gray62",
"j c #A4A4A4",
"k c gray65",
"l c gray66",
"z c #AEAEAE",
"x c gray69",
"c c #BCBCBC",
"v c gray",
"b c #C0C0C0",
"n c gray76",
"m c gray77",
"M c #C6C6C6",
"N c #C8C8C8",
"B c #CACACA",
"V c #CECECE",
"C c #D0D0D0",
"Z c gray83",
"A c gray84",
"S c #DADADA",
"D c gray88",
"F c #E4E4E4",
"G c #E6E6E6",
"H c gray91",
"J c #EEEEEE",
"K c gray94",
"L c gray95",
"P c #F4F4F4",
"I c #F6F6F6",
"U c #F8F8F8",
"Y c gray98",
"T c gray99",
"R c white",
/* pixels */
"RRRRRRRRRRRRRRRRRRRRRRRRRRRRRRRRRRRRRRRRRRRRRRRRRRRRRRRRRRRRRRRRRRR",
"RRRRRRRRRRRRRRRRRRRRRRRRRRRRRRRRRRRRRRRRRRRRRRRRRRRRRRRRRRRRRRRRRRR",
"RRRRRRRRRRRRRRRRRRRRRRRRRRRRRRRRRRRRRRRRRRRRRRRRRRRRRRRRRRRRRRRRRRR",
"RRRRRRRRRRRRRRRRRRRRRRRRRRRRRRRRRRRRRRRRRRRRRRRRRRRRRRRRRRRRRRRRRRR",
"RRRRRRRRRRRRRRRRRRRRRRRRRRRRRRRRRRRRRRRRRRRRRRRRRRRRRRRRRRRRRRRRRRR",
"RRRRRRRRRRRRRRRRRRRRRRRRRRRRRRRRRRRRRRRRRRRRRRRRRRRRRRRRRRRRRRRRRRR",
"RRRRRRRRRRRRRRRRRRRRRRRRRRRRRRRRRRRRRRRRRRRRRRRRRRRRRRRRRRRRRRRRRRR",
"RRRRRRRRRRRRRRRRRRRRRRRRRRRRRRRRRRRRRRRRRRRRRRRRRRRRRRRRRRRRRRRRRRR",
"RRRRRRRRRRRRRRRRRRRRRRRRRRRRRRRRRRRRRRRRRRRRRRRRRRRRRRRRRRRRRRRRRRR",
"RRRRRRRRRRRRRRRRRRRRRRRRRRRRRRRRRRRRRRRRRRRRRRRRRRRRRRRRRRRRRRRRRRR",
"RRRRRRRRRRRRRRRRRRRRRRRRRRRRRRRRRRRRRRRRRRRRRRRRRRRRRRRRRRRRRRRRRRR",
"RRRRRRRRRRRRRRRRRRRRRRRRRRRRRRRRRPGYRRRRRRRRRRRRRRRRRRRRRRRRRRRRRRR",
"RRRRRRRRRRRRRRRRRRRRRRRRRRRRRRRRRx  *dRRRRRRRRRRRRRRRRRRRRRRRRRRRRR",
"RRRRRRRRRRRRRRRRRRRRRRRRRRRRRRRRRx  2MRRRRRRRRRRRRRRRRRRRRRRRRRRRRR",
"RRRRRRRRRRRRRRRRRRRRRRRRRRRRRRRRRx  KRRRRRRRRRRRRClRRRRRRRRRRRRRRRR",
"RRRRRRRRRRRRRRRRRRRRRRRRRRRRRRRRRx  KRRRRRRRRRRRJ* fRRRRRRRRRRRRRRR",
"RRRRRRRRRRRRRRRRRRRRRRRRRRRRRRRRRx  KRRRRRRRRRRR3   jRRRRRRRRRRRRRR",
"RRRRRRRRRRRRRRRRR5                                  ;RRRRRRRRRRRRRR",
"RRRRRRRRRRRRRRRRRRRRRRRRRRRRRRRRRx  KRRRRRRRRRRRRRRRRRRRRRRRRRRRRRR",
"RRRRRRRRRRRRRRRRRRRRRRRRRRRRRRRRRx  KRRRRRRRRRRRRRRRRRRRRRRRRRRRRRR",
"RRRRRRRRRRRRRRRRRRRRRRRRRRRRRRRRRx  KRRRRRRRRRRRRRRRRRRRRRRRRRRRRRR",
"RRRRRRRRRRRRRRRRRRRRGRRRRRRRRRRRRx  KRRRRRRRRRRY0CRRRRRRRRRRRRRRRRR",
"RRRRRRRRRRRRRRRRRRRRw1cRRRRRRRRRRx  KRRRRRRRRRRe +nRRRRRRRRRRRRRRRR",
"RRRRRRRRRRRRRRRRRRRRw                             #YRRRRRRRRRRRRRRR",
"RRRRRRRRRRRRRRRRRRRRw 5RRRRRRRRRRRRRRRPRRRRRRRR7 %lRRRRRRRRRRRRRRRR",
"RRRRRRRRRRRRRRRRRRRRw 5RRRRV;nRRRRRRRR71cRRRRRR7 9RRRRRRRRRRRRRRRRR",
"RRRRRRRRRRRRRRRRRRRRw 5RRRRR2 pRRRRRRY+  uRRRRR7 9RRRRRRRRRRRRRRRRR",
"RRRRRRRRRRRRRRRRRRRRw 5RRRRRG+ uRRRRRc  uNRRRRR7 9RRRRRRRRRRRRRRRRR",
"RRRRRRRRRRRRRRRRRRRRw 5RRRRRRu  NRRRRt 9RRRRRRR7 9RRRRRRRRRRRRRRRRR",
"RRRRRRRRRRRRRRRRRRRRw 5RRRRRRG  tRRRP##HRRnRRRR7 9RRRRRRRRRRRRRRRRR",
"RRRRRRRRRRRRRRRRRRRRw 5RRRRRRR> 7RRRh zRRaOcRRR7 9RRRRRRRRRRRRRRRRR",
"RRRRRRRRRRRRRRRRRRRRw 5RRRRRRRh+jRRR>tRRVo #SRR7 9RRRRRRRRRRRRRRRRR",
"RRRRRRRRRRRRRRRRRRRRw 5RRp                  fRR7 9RRRRRRRRRRRRRRRRR",
"RRRRRRRRRRRRRRRRRRRRw 5RRRRRRRRRRc  RRRRRRRRRRR7 9RRRRRRRRRRRRRRRRR",
"RRRRRRRRRRRRRRRRRRRRw 5RRRRRRRRRRc  RRRRRRRRRRR7 9RRRRRRRRRRRRRRRRR",
"RRRRRRRRRRRRRRRRRRRRw 5RRRRRRRRRRc  RRRRRRAJRRR7 9RRRRRRRRRRRRRRRRR",
"RRRRRRRRRRRRRRRRRRRRw 5RRRRRRRRRRc  RRRRRK=>JRR7 9RRRRRRRRRRRRRRRRR",
"RRRRRRRRRRRRRRRRRRRRw 5RRRRRRRRRRc  RRRRR6  1YR7 9RRRRRRRRRRRRRRRRR",
"RRRRRRRRRRRRRRRRRRRRw 5RSo                   SR7 9RRRRRRRRRRRRRRRRR",
"RRRRRRRRRRRRRRRRRRRRw 5RRRRRRRRRRc  YRRRRRRRRRR7 9RRRRRRRRRRRRRRRRR",
"RRRRRRRRRRRRRRRRRRRRw 5RRRRRRRRRRc  RRRRRRRRRRR7 9RRRRRRRRRRRRRRRRR",
"RRRRRRRRRRRRRRRRRRRRw 5RRRRRRRRRRc  RRRRRRRRRRR7 9RRRRRRRRRRRRRRRRR",
"RRRRRRRRRRRRRRRRRRRRw 5RRRRRRRRRRc  RRRRRRRRRRR7 9RRRRRRRRRRRRRRRRR",
"RRRRRRRRRRRRRRRRRRRRw 5RRRRRRRRRRc  RRRRAAHKYRD= 9RRRRRRRRRRRRRRRRR",
"RRRRRRRRRRRRRRRRRRRRw 5RRRRRRRRRRc  RRRR0o       yRRRRRRRRRRRRRRRRR",
"RRRRRRRRRRRRRRRRRRRRw 5RRRRRRRRRRc  RRRRRPnu*    jRRRRRRRRRRRRRRRRR",
"RRRRRRRRRRRRRRRRRRRRw 5RRRRRRRRRRc  RRRRRRRRP,  5RRRRRRRRRRRRRRRRRR",
"RRRRRRRRRRRRRRRRRRRRw 5RRRRRRRRRRRRRRRRRRRRRRMscRRRRRRRRRRRRRRRRRRR",
"RRRRRRRRRRRRRRRRRRRRRRRRRRRRRRRRRRRRRRRRRRRRRRRRRRRRRRRRRRRRRRRRRRR",
"RRRRRRRRRRRRRRRRRRRRRRRRRRRRRRRRRRRRRRRRRRRRRRRRRRRRRRRRRRRRRRRRRRR",
"RRRRRRRRRRRRRRRRRRRRRRRRRRRRRRRRRRRRRRRRRRRRRRRRRRRRRRRRRRRRRRRRRRR",
"RRRRRRRRRRRRRRRRRRRRRRRRRRRRRRRRRRRRRRRRRRRRRRRRRRRRRRRRRRRRRRRRRRR",
"RRRRRRRRRRRRRRRRRRRRRRRRRRRRRRRRRRRRRRRRRRRRRRRRRRRRRRRRRRRRRRRRRRR",
"RRRRRRRRRRRRRRRRRRRRRRRRRRRRRRRRRRRRRRRRRRRRRRRRRRRRRRRRRRRRRRRRRRR",
"RRRRRRRRRRRRRRRRRRRRRRRRRRRRRRRRRRRRRRRRRRRRRRRRRRRRRRRRRRRRRRRRRRR",
"RRRRRRRRRRRRRRRRRRRRRRRRRRRRRRRRRRRRRRRRRRRRRRRRRRRRRRRRRRRRRRRRRRR",
"RRRRRRRRRRRRRRRRRRRRRRRRRRRRRRRRRRRRRRRRRRRRRRRRRRRRRRRRRRRRRRRRRRR",
"RRRRRRRRRRRRRRRRRRRRRRRRRRRRRRRRRRRRRRRRRRRRRRRRRRRRRRRRRRRRRRRRRRR",
"RRRRRRRRRRRRRRRRRRRRRRRRRRRRRRRRRRRRRRRRRRRRRRRRRRRRRRRRRRRRRRRRRRR",
"RRRRRRRRRRRRRRRRRRRRRRRRRRRRRRRRRRRRRRRRRRRRRRRRRRRRRRRRRRRRRRRRRRR",
"RRRRRRRRRRRRRRRRRRRRRRRRRRRRRRRRRRRRRRRRRRRRRRRRRRRRRRRRRRRRRRRRRRR",
"RRRRRRRRRRRRRRRRRRRRRRRRRRRRRRRRRRRRRRRRRRRRRRRRRRRRRRRRRRRRRRRRRRR",
"RRRRRRRRRRRRRRRRRRRRRRRRRRRRRRRRRRRRRRRRRRRRRRRRRRRRRRRRRRRRRRRRRRR",
"RRRRRRRRRRRRRRRRRRRRRRRRRRRRRRRRRRRRRRRRRRRRRRRRRRRRRRRRRRRRRRRRRRR",
"RRRRRRRRRRRRRRRRRRRRRRRRRRRRRRRRRRRRRRRRRRRRRRRRRRRRRRRRRRRRRRRRRRR",
"RRRRRRRRRRRRRRRRRRRRRRRRRRRRRRRRRRRRRRRRRRRRRRRRRRRRRRRRRRRRRRRRRRR",
"RRRRRRRRRRRRRRRRRRRRRRRRRRRRRRRRRRRRRRRRRRRRRRRRRRRRRRRRRRRRRRRRRRR"
};
