/* XPM */
static char *_79a5973a7b545ea83f2b6bb6e2ad537xunF6myqaJS6FRqa[] = {
/* columns rows colors chars-per-pixel */
"66 65 70 1 ",
"  c black",
". c #020202",
"X c #040404",
"o c #060606",
"O c gray3",
"+ c gray4",
"@ c #0C0C0C",
"# c #0E0E0E",
"$ c #101010",
"% c gray8",
"& c #161616",
"* c #181818",
"= c gray10",
"- c gray11",
"; c #202020",
": c #222222",
"> c gray15",
", c #2C2C2C",
"< c gray19",
"1 c #323232",
"2 c gray21",
"3 c #3E3E3E",
"4 c gray25",
"5 c gray26",
"6 c #484848",
"7 c #4C4C4C",
"8 c #4E4E4E",
"9 c #505050",
"0 c gray32",
"q c #585858",
"w c gray36",
"e c #626262",
"r c #646464",
"t c #767676",
"y c gray48",
"u c #7E7E7E",
"i c #808080",
"p c #868686",
"a c #8E8E8E",
"s c #929292",
"d c #989898",
"f c #A0A0A0",
"g c gray66",
"h c #AAAAAA",
"j c gray69",
"k c #B4B4B4",
"l c gray72",
"z c gray73",
"x c #BCBCBC",
"c c gray",
"v c #C0C0C0",
"b c gray76",
"n c #C6C6C6",
"m c #C8C8C8",
"M c #CACACA",
"N c #CECECE",
"B c gray84",
"V c #D8D8D8",
"C c gainsboro",
"Z c gray87",
"A c gray88",
"S c gray91",
"D c #EAEAEA",
"F c #ECECEC",
"G c #EEEEEE",
"H c gray95",
"J c #F4F4F4",
"K c #F6F6F6",
"L c gray98",
"P c white",
/* pixels */
"PPPPPPPPPPPPPPPPPPPPPPPPPPPPPPPPPPPPPPPPPPPPPPPPPPPPPPPPPPPPPPPPPP",
"PPPPPPPPPPPPPPPPPPPPPPPPPPPPPPPPPPPPPPPPPPPPPPPPPPPPPPPPPPPPPPPPPP",
"PPPPPPPPPPPPPPPPPPPPPPPPPPPPPPPPPPPPPPPPPPPPPPPPPPPPPPPPPPPPPPPPPP",
"PPPPPPPPPPPPPPPPPPPPPPPPPPPPPPPPPPPPPPPPPPPPPPPPPPPPPPPPPPPPPPPPPP",
"PPPPPPPPPPPPPPPPPPPPPPPPPPPPPPPPPPPPPPPPPPPPPPPPPPPPPPPPPPPPPPPPPP",
"PPPPPPPPPPPPPPPPPPPPPPPPPPPPPPPPPPPPPPPPPPPPPPPPPPPPPPPPPPPPPPPPPP",
"PPPPPPPPPPPPPPPPPPPPPPPPPPPPPPPPPPPPPPPPPPPPPPPPPPPPPPPPPPPPPPPPPP",
"PPPPPPPPPPPPPPPPPPPPPPPPPPPPPPPPPPPPPPPPPPPPPPPPPPPPPPPPPPPPPPPPPP",
"PPPPPPPPPPPPPPPPPPPPPPPPPPPPPPPPPPPPPPPPPPPPPPPPPPPPPPPPPPPPPPPPPP",
"PPPPPPPPPPPPPPPPPPPPPPPPPPPPPPPPPPPPPPPPPPPPPPPPPPPPPPPPPPPPPPPPPP",
"PPPPPPPPPPPPPPPPPPPPPPPPPPPPPPPPPPPPPPPPPPPPPPPPPPPPPPPPPPPPPPPPPP",
"PPPPPPPPPPPPPPPPPPPPPPPPPPPPPPPPPPPPPPPPPPPPPPPPPPPPPPPPPPPPPPPPPP",
"PPPPPPPPPPPPPPPPPPPPPPPPPPPPPPPPPPPPPPPPPPPPPPPPPlxPPPPPPPPPPPPPPP",
"PPPPPPPPPPPPPPPPPPPPPPPPPPPPPPPPPPPPPPPPPPPPPPPPZ$+bPPPPPPPPPPPPPP",
"PPPPPPPPPPPPPPPPPPPPPPPPPPPPPPPPPPPPPPPPPPPPPPPK,  @nPPPPPPPPPPPPP",
"PPPPPPPPPPPPPPPPPe                                  rPPPPPPPPPPPPP",
"PPPPPPPPPPPPPPPPPPPPPPPPPPPPPq qPPPPV  APPPPPPPPPPPPPPPPPPPPPPPPPP",
"PPPPPPPPPPPPPPPPPPPPPPPPPPPPPq qPPPPV  APPPPPPPPPPPPPPPPPPPPPPPPPP",
"PPPPPPPPPPPPPPPPPPPPPPPPPPPPPq qPPPPV  APPPPPPPPPPPPPPPPPPPPPPPPPP",
"PPPPPPPPPPPPPPPPPPPPPPPPPPPPPq qPPPPV  APPPPPPPPPPPPPPPPPPPPPPPPPP",
"PPPPPPPPPPPPPPPPPPPPPPPPPPPPPq qPPPPV  APPPPPPPPPPPPPPPPPPPPPPPPPP",
"PPPPPPPPPPPPPPPPPPPPPPPPPPPPPq qPPPPV  APPPPPPPPPPPPPPPPPPPPPPPPPP",
"PPPPPPPPPPPPPPPPPPPPFPPPPPPPPq qPPPPV  APPPPPPPK<jPPPPPPPPPPPPPPPP",
"PPPPPPPPPPPPPPPPPPPP%rZPPPPPPq qPPPPV  APPPPPPPq XhPPPPPPPPPPPPPPP",
"PPPPPPPPPPPPPPPPPPPP@                             @LPPPPPPPPPPPPPP",
"PPPPPPPPPPPPPPPPPPPP@ dPPPPPP7 ePPPPV  APPPPPPPw =nPPPPPPPPPPPPPPP",
"PPPPPPPPPPPPPPPPPPPP@ dPPPPPP2 tPPPPV  APPPPPPPw 9PPPPPPPPPPPPPPPP",
"PPPPPPPPPPPPPPPPPPPP@ dPPPPPP; aPPPPV  APPPPPPPw 9PPPPPPPPPPPPPPPP",
"PPPPPPPPPPPPPPPPPPPP@ dPPPPPK  xPPPPV  APPPSBPPw 9PPPPPPPPPPPPPPPP",
"PPPPPPPPPPPPPPPPPPPP@ dPPPPPn  FPPPPV  APPPj>PPw 9PPPPPPPPPPPPPPPP",
"PPPPPPPPPPPPPPPPPPPP@ dPPPPPi 3PPPPPV  APPPd;PPw 9PPPPPPPPPPPPPPPP",
"PPPPPPPPPPPPPPPPPPPP@ dPPPPP< sPPPPPV  APPPy=PPw 9PPPPPPPPPPPPPPPP",
"PPPPPPPPPPPPPPPPPPPP@ dPPPPm $KPPPPPV  APPP9XPPw 9PPPPPPPPPPPPPPPP",
"PPPPPPPPPPPPPPPPPPPP@ dPPPP6 pPPPPPPV  ZPPP- NPw 9PPPPPPPPPPPPPPPP",
"PPPPPPPPPPPPPPPPPPPP@ dPPPk ,LPPPPPPZ  yHHu  ;bw 9PPPPPPPPPPPPPPPP",
"PPPPPPPPPPPPPPPPPPPP@ dPPS=$VPPPPPPPL$        bw 9PPPPPPPPPPPPPPPP",
"PPPPPPPPPPPPPPPPPPPP@ dPH<@bPPPPPPPPPl4%X +=4fPw 9PPPPPPPPPPPPPPPP",
"PPPPPPPPPPPPPPPPPPPP@ dS2%mPPPPPPPPPPPPPPPPPPPPw 9PPPPPPPPPPPPPPPP",
"PPPPPPPPPPPPPPPPPPPP@ dh7SPPPPPPPPPPPPPPPPPPPPPw 9PPPPPPPPPPPPPPPP",
"PPPPPPPPPPPPPPPPPPPP@ dPPPPPPPPPPPPPPPPPPPPPPPPw 9PPPPPPPPPPPPPPPP",
"PPPPPPPPPPPPPPPPPPPP@ dPPPPPPPPPPPPPPPPPPPPPPPPw 9PPPPPPPPPPPPPPPP",
"PPPPPPPPPPPPPPPPPPPP@ dPPPPPPPPPPPPPPPPPPPPPPPPw 9PPPPPPPPPPPPPPPP",
"PPPPPPPPPPPPPPPPPPPP@ dPPPPPPPPPPPPPPPPPPPPPPPPw 9PPPPPPPPPPPPPPPP",
"PPPPPPPPPPPPPPPPPPPP@                            9PPPPPPPPPPPPPPPP",
"PPPPPPPPPPPPPPPPPPPP@ dPPPPPPPPPPPPPPPPPPPPPPPPw 9PPPPPPPPPPPPPPPP",
"PPPPPPPPPPPPPPPPPPPP@ dPPPPPPPPPPPPPPPPPPPPPPPPw 9PPPPPPPPPPPPPPPP",
"PPPPPPPPPPPPPPPPPPPP@ dPPPPPPPPPPPPPPPPPPPPPPPPw 9PPPPPPPPPPPPPPPP",
"PPPPPPPPPPPPPPPPPPPPPPPPPPPPPPPPPPPPPPPPPPPPPPPPPPPPPPPPPPPPPPPPPP",
"PPPPPPPPPPPPPPPPPPPPPPPPPPPPPPPPPPPPPPPPPPPPPPPPPPPPPPPPPPPPPPPPPP",
"PPPPPPPPPPPPPPPPPPPPPPPPPPPPPPPPPPPPPPPPPPPPPPPPPPPPPPPPPPPPPPPPPP",
"PPPPPPPPPPPPPPPPPPPPPPPPPPPPPPPPPPPPPPPPPPPPPPPPPPPPPPPPPPPPPPPPPP",
"PPPPPPPPPPPPPPPPPPPPPPPPPPPPPPPPPPPPPPPPPPPPPPPPPPPPPPPPPPPPPPPPPP",
"PPPPPPPPPPPPPPPPPPPPPPPPPPPPPPPPPPPPPPPPPPPPPPPPPPPPPPPPPPPPPPPPPP",
"PPPPPPPPPPPPPPPPPPPPPPPPPPPPPPPPPPPPPPPPPPPPPPPPPPPPPPPPPPPPPPPPPP",
"PPPPPPPPPPPPPPPPPPPPPPPPPPPPPPPPPPPPPPPPPPPPPPPPPPPPPPPPPPPPPPPPPP",
"PPPPPPPPPPPPPPPPPPPPPPPPPPPPPPPPPPPPPPPPPPPPPPPPPPPPPPPPPPPPPPPPPP",
"PPPPPPPPPPPPPPPPPPPPPPPPPPPPPPPPPPPPPPPPPPPPPPPPPPPPPPPPPPPPPPPPPP",
"PPPPPPPPPPPPPPPPPPPPPPPPPPPPPPPPPPPPPPPPPPPPPPPPPPPPPPPPPPPPPPPPPP",
"PPPPPPPPPPPPPPPPPPPPPPPPPPPPPPPPPPPPPPPPPPPPPPPPPPPPPPPPPPPPPPPPPP",
"PPPPPPPPPPPPPPPPPPPPPPPPPPPPPPPPPPPPPPPPPPPPPPPPPPPPPPPPPPPPPPPPPP",
"PPPPPPPPPPPPPPPPPPPPPPPPPPPPPPPPPPPPPPPPPPPPPPPPPPPPPPPPPPPPPPPPPP",
"PPPPPPPPPPPPPPPPPPPPPPPPPPPPPPPPPPPPPPPPPPPPPPPPPPPPPPPPPPPPPPPPPP",
"PPPPPPPPPPPPPPPPPPPPPPPPPPPPPPPPPPPPPPPPPPPPPPPPPPPPPPPPPPPPPPPPPP",
"PPPPPPPPPPPPPPPPPPPPPPPPPPPPPPPPPPPPPPPPPPPPPPPPPPPPPPPPPPPPPPPPPP",
"PPPPPPPPPPPPPPPPPPPPPPPPPPPPPPPPPPPPPPPPPPPPPPPPPPPPPPPPPPPPPPPPPP"
};
