/* XPM */
static char *a697dd911a774fcdf7871485d97eb048JJkCdIeRe7ndqc2n[] = {
/* columns rows colors chars-per-pixel */
"64 64 2 1 ",
"  c None",
". c #A56E34",
/* pixels */
"                                                                ",
"   ...........................................................  ",
"   ...........................................................  ",
"   ...........................................................  ",
"   ...........................................................  ",
"   ...........................................................  ",
"   ...........................................................  ",
"   ...........................................................  ",
"   ...........................................................  ",
"   ...........................................................  ",
"   ...........................................................  ",
"   ...........................................................  ",
"   ...........................................................  ",
"   ...........................................................  ",
"   ...........................................................  ",
"   ...........................................................  ",
"   ...........................................................  ",
"   ...........................................................  ",
"   ...........................................................  ",
"   ...........................................................  ",
"   ...........................................................  ",
"   ...........................................................  ",
"   ...........................................................  ",
"   ...........................................................  ",
"   ...........................................................  ",
"   ...........................................................  ",
"   ...........................................................  ",
"   ...........................................................  ",
"   ...........................................................  ",
"   ...........................................................  ",
"   ...........................................................  ",
"   ...........................................................  ",
"   ...........................................................  ",
"   ...........................................................  ",
"   ...........................................................  ",
"   ...........................................................  ",
"   ...........................................................  ",
"   ...........................................................  ",
"   ...........................................................  ",
"   ...........................................................  ",
"   ...........................................................  ",
"   ...........................................................  ",
"   ...........................................................  ",
"   ...........................................................  ",
"   ...........................................................  ",
"   ...........................................................  ",
"   ...........................................................  ",
"   ...........................................................  ",
"   ...........................................................  ",
"   ...........................................................  ",
"   ...........................................................  ",
"   ...........................................................  ",
"   ...........................................................  ",
"   ...........................................................  ",
"   ...........................................................  ",
"   ...........................................................  ",
"   ...........................................................  ",
"   ...........................................................  ",
"   ...........................................................  ",
"   ...........................................................  ",
"   ...........................................................  ",
"                                                                ",
"                                                                ",
"                                                                "
};
