/* XPM */
static char *c8c5f9eca1644f46ecb72a76d8dda47e812lV1GDsvMKch9b[] = {
/* columns rows colors chars-per-pixel */
"64 64 256 2 ",
"   c #040302",
".  c #0A0707",
"X  c #180C09",
"o  c #041805",
"O  c #191415",
"+  c #26130D",
"@  c #2A1A14",
"#  c #331B10",
"$  c #032904",
"%  c #10340C",
"&  c #392419",
"*  c #303115",
"=  c #161D27",
"-  c #3B2C25",
";  c #312F2D",
":  c #471C0A",
">  c #56280D",
",  c #462A19",
"<  c #582B16",
"1  c #4A311D",
"2  c #58331C",
"3  c #72380D",
"4  c #66381A",
"5  c #462E23",
"6  c #4B3529",
"7  c #483628",
"8  c #563827",
"9  c #493A35",
"0  c #553E34",
"q  c #653D25",
"w  c #314E11",
"e  c #364531",
"r  c #794314",
"t  c #59412C",
"y  c #4C4F32",
"u  c #53433C",
"i  c #5A4538",
"p  c #6A452B",
"a  c #784928",
"s  c #664A37",
"d  c #754C35",
"f  c #6F5237",
"g  c #795439",
"h  c #4B692F",
"j  c #6C693B",
"k  c #3B3B42",
"l  c #3A4D53",
"z  c #584946",
"x  c #504E4B",
"c  c #575648",
"v  c #624D46",
"b  c #675548",
"n  c #775A46",
"m  c #665956",
"M  c #735E56",
"N  c #556E4D",
"B  c #576554",
"V  c #6A6A4D",
"C  c #7A634C",
"Z  c #6A6659",
"A  c #786658",
"S  c #677859",
"D  c #665C63",
"F  c #586A69",
"G  c #6B6565",
"H  c #766A65",
"J  c #687567",
"K  c #797367",
"L  c #786C76",
"P  c #697879",
"I  c #777878",
"U  c #813E03",
"Y  c #85480A",
"T  c #874C16",
"R  c #8E5116",
"E  c #955617",
"W  c #AC661A",
"Q  c #844D24",
"!  c #895628",
"~  c #965C28",
"^  c #875A35",
"/  c #935D34",
"(  c #A05F20",
")  c #99622B",
"_  c #8D6338",
"`  c #996639",
"'  c #A56729",
"]  c #B6742C",
"[  c #A66B37",
"{  c #A26C3C",
"}  c #A87237",
"|  c #AC733C",
" . c #B57839",
".. c #845D45",
"X. c #886548",
"o. c #976B45",
"O. c #9A734B",
"+. c #876956",
"@. c #8C7258",
"#. c #967659",
"$. c #A26D43",
"%. c #A47344",
"&. c #A87748",
"*. c #AB7C4C",
"=. c #B67D45",
"-. c #B37D4C",
";. c #AC7D53",
":. c #A67C58",
">. c #B17D51",
",. c #886C6D",
"<. c #887767",
"1. c #977967",
"2. c #877878",
"3. c #987B74",
"4. c #A67C66",
"5. c #A17F75",
"6. c #75846A",
"7. c #798579",
"8. c #BB823F",
"9. c #C08037",
"0. c #908158",
"q. c #AE824A",
"w. c #BD8345",
"e. c #B3834C",
"r. c #B98748",
"t. c #BB844C",
"y. c #AC8558",
"u. c #B38353",
"i. c #BB8554",
"p. c #BC8A54",
"a. c #B4845B",
"s. c #B78959",
"d. c #BC8B5B",
"f. c #BC925C",
"g. c #948F6F",
"h. c #878577",
"j. c #968876",
"k. c #A98668",
"l. c #B38766",
"z. c #B58964",
"x. c #BA8C64",
"c. c #BA8D6A",
"v. c #BA9565",
"b. c #BC926D",
"n. c #A88674",
"m. c #B48C74",
"M. c #A69577",
"N. c #BB9373",
"B. c #BA977A",
"V. c #BDA27B",
"C. c #C28949",
"Z. c #C38C4C",
"A. c #C78C52",
"S. c #C38B54",
"D. c #C28E5B",
"F. c #C99350",
"G. c #C4935B",
"H. c #C89658",
"J. c #C49463",
"K. c #CC9A67",
"L. c #CB9C64",
"P. c #C2956B",
"I. c #C79969",
"U. c #C29673",
"Y. c #C49A74",
"T. c #CB9D74",
"R. c #C29A7A",
"E. c #CA9D7A",
"W. c #C8A26B",
"Q. c #D5A669",
"!. c #CCA373",
"~. c #CBA579",
"^. c #D4A879",
"/. c #DDB37B",
"(. c #E1AF6E",
"). c #E7B779",
"_. c #707B81",
"`. c #8D7E81",
"'. c #728588",
"]. c #778989",
"[. c #7A8D93",
"{. c #7C9397",
"}. c #878886",
"|. c #968984",
" X c #86938B",
".X c #97968D",
"XX c #879799",
"oX c #979B97",
"OX c #AB988C",
"+X c #97A399",
"@X c #A8A487",
"#X c #B6A88C",
"$X c #A6A597",
"%X c #B7AB94",
"&X c #BDB298",
"*X c #8A9CA2",
"=X c #939DA0",
"-X c #8CA4AB",
";X c #94A4AB",
":X c #98A5A8",
">X c #8FABB2",
",X c #95ABB3",
"<X c #9AB4BB",
"1X c #A7AAA8",
"2X c #AFAFAB",
"3X c #A8B6BA",
"4X c #BAB9B8",
"5X c #C49F81",
"6X c #C8A786",
"7X c #C8AD8D",
"8X c #D6AA84",
"9X c #D7B48B",
"0X c #C8B69A",
"qX c #D8B795",
"wX c #E5BB86",
"eX c #E1B896",
"rX c #C7B8A9",
"tX c #CFBDAC",
"yX c #BEC5BE",
"uX c #ECC189",
"iX c #F0C58C",
"pX c #F3CB96",
"aX c #D9C4A8",
"sX c #C8C3B9",
"dX c #D3CAB6",
"fX c #E1C9AB",
"gX c #FAD7A4",
"hX c #E8D2B5",
"jX c #FDE3B2",
"kX c #99B7C2",
"lX c #A5BCC4",
"zX c #B6BDC1",
"xX c #A9C2CB",
"cX c #B9C4C6",
"vX c #ADC8D4",
"bX c #B6CCD5",
"nX c #B9D1DC",
"mX c #BBD4E1",
"MX c #C7C8C8",
"NX c #D1CECB",
"BX c #D5D5CC",
"VX c #C9CDD2",
"CX c #C8D3D5",
"ZX c #D7D7D8",
"AX c #E3DBD0",
"SX c #D8E1DB",
"DX c #EDE7D3",
"FX c #C4DCE8",
"GX c #DBDDE3",
"HX c #CDE5F0",
"JX c #E6E6E5",
"KX c #F8F7EA",
"LX c #ECEEF0",
"PX c #EBF3F5",
"IX c #F7F7F4",
"UX c #FEFEFD",
/* pixels */
"XXXX;X:X1X+X[.'.[.*X-X>X<XlXlXlXxXxXxX<XXX;X<X3X3XcX3X3X3X3X3X3X3X3X2X$X$XoXoXoX|.h.S B c x x x x e % $ $ $ $ $ $ $ $ % h.0X0X0X",
"XX:X:X:X:X+XXX].].[.{.{.-X,X<XlXlXxX<X-X{.-XlXvXbXxX3X3X3X3X3X1X}.}.1X1XoX Xh.h.h.K V c c c c c e * $ $ $ $ o $ o o o % g.0X0X0X",
"oX+X2XcXVXVXcXcXcX3XXX{.-XlXvXbXbXnXbXxXlXvXnXFXHXbX3X3X,X,X1Xz ; ; x oX1X:X:XoX.X}.7.6.J S Z B e ; % $ $ o       o o % g.0X0X0X",
"}.1XZXPXPXJXGXJXIXUXPXSXFXHXHXHXFXFXFXnXmXFXFXHXHXbX<X,X:X1Xm ; ; = . ; <X3XlXlX<X:X;XoX X].P J B x e % % o o o o o % ; g.0X0XaX",
"h.yXIXUXPXJXZXJXUXUXUXUXUXPXHXHXFXmXvXxXvXbXnXmXnXxXkX,X;X$XO = ; .   O XXzXbXnXnXvXlX<X;XXX[.].7.J F B B B F F l e e x @X0XaXaX",
".XNXLXPXPXJXSXJXKXUXUXUXUXUXPXnXvXlX<X<XkXlXxXlXlXkX<X<X;X2.O = = . . = P cXbXmXFXmXvXlX,X*X*X*XXX[.].[.[.[.*X*X{.'.P 7.%XaXfXfX",
"$XsXZXLXPXPXKXJXAXJXIXUXUXUXUXPX<X>X-X>X>X,X,X,X-X-X,X,X2Xx ; k k ; = = l 3XcXbXnXvXkX<X,X>X,X;Xh.}.oX{.{.*X;X,X;X;X*X:X0XaXaXfX",
"2X4XMXZXJXLXIXJXNXMXJXIXUXUXUXUXSX*X*X*X*X-X;X*XXX{.XXXX$Xx x x x ; = O = oXcXcXvXlX>X-X-X;X;X|.H c H XX*X*X;X;X;X;X:X2X&XaXaXaX",
"cX4XsXNXNXBXGXGXBXBXJXJXSXIXUXUXUX<X].{.XXXXXX X].'.].}..Xx x x ; - f d a s <.1XzXlX-X*X{.{.j.A 2.u i |.;X;X;X;X;X;X:X1X&XaXfXaX",
"CXMXrXsXsXMXNXBXZXJXJXZXZXIXUXUXUXCX{.].[.[.[.].I P 7..X%XD ; v n g q < 2 q q q q b H ].[.h.@.M.<.7 1 <.:X;X:X:X:X;X;X:XrXaXaXaX",
"LXSXsX&XrXtXsXNXBXZXZXNXMXJXUXUXUXZX-X[.].].[.].P P 7.2XrX}.b n q 8 , 8 s s 8 i 8 8 0 v K k.n.&X+.1 , <.=XXX=XoXoX*X*X=XrXaXaXaX",
"UXUXAXsXtXMXNXNXBXNXMX$X$X4XJXIXPXCX,XXX'._.].].P P 7.MX$XH v i b i v b s 8 7 9 5 & 9 9 1.k.#X<.0 2 1 <.XXXX[. XXXXXXXoXrXaXaXaX",
"UXUXLXZXZXZXZXZXZXVXzXh.K oX2XcXMXbXlX*XP F F P P '.h.<.n n M H H H G b u 9 7 - - & 9 A n V.6XC @ & 7 7.].].[.].]. XoX:XrXaXrXaX",
"UXIXJXGXGXZXVXZXZXVX4Xh.H }.:X2XzXcXxX;X'.F B J 7.<.+.g n A <.,.<.2.H A m v v z 9 9 <.0 y.~.V.p # & m P _.'.].].]. XoX2XaXaXrXaX",
"SXJXJXZXMXMXVXZXVX4X|.I }.:X4XMXVXCXCXMXcX3X1X1Xh.+.s b A +.+.A m Z Z G Z G G I oX|.X.p q.V.<.1 g M J P _.'.].[.[. XoX%XrXtXrXaX",
"MXGXJXZXMXrXMXVX4X.XK h.2XMXBXZXZXZXZXZXGXGXMXj.X.n b <.M M v b u 9 z m A A M z M 1.y.s.v.<.- @ s A P P P P ].].XX XoX%X0X0X0XaX",
"MXZXGXZXMX4X4X4X1Xh.h.1XMXBXBXBXBXBXVXCXZXCX#Xk...0 1.1.n b i i u - 7 9 u i 7 8 C 6X6X6X9XaXj.0 O.A G ].P F I 7.].7. X%X0X7X%X0X",
"2XrXMXsX4X2X2X1X.X2.oXMXBXBXBXdXsX4X4X4XcX2X6X:.p @.n.@.+.d 8 5 - 7 7 7 - 9 u 5 - s C #.aXn.@.p p b m _.{.F F J J S 7.#X0X0X7X#X",
"j.OXOX$XOXOX.X|.2.G .XsXNXdXsX&X$X+X.X.X.X#Xk.p s 4.k.:.d p 5 + - 7 7 9 - & 7 5 5 & & 5 n t & + 7 9 z m }.6.B B N S 6.#X0X#X#Xk.",
"A A @.<.<.<.K H c y H $X%X%X@Xg.6.6.6.7.j.B.X.8 +.1.m.:.8 b 8 t s i 9 u - - @ - & # # @ + X X @ u v z z D 6.N N N N h g.@Xg.@._ ",
"}.I G b v b b z x m K h.h.h.6.S S S S 7.j.O.d d g X.B.#.5 s #.+.1.n u 9 ; - - & @ @ + X X + & & i z z z z Z S N N h h g.%XOXM.g.",
"4X2XoX}.J K L I I .X|.|.|.2.`.I 2.}.}.}.M ^ a ^ 4 a :.o.@ f #.+.j.@.n z 7 - 9 5 - & X + + # # # 0 z 9 9 9 m J S N h h M.0X0X%X#X",
"CXVXMXzX3X3X3X1XOXOX3.3.|.`.2.2.L L L L 2.^ a Q < < / ` 1 8 7 t g n a p 0 7 0 0 7 5 & & # , # # 7 b z 9 0 v v V h h h @X0X0X&X#X",
"CXVXVXCXCXMX4X#X#Xn.n.n.3.,.3.3.2.L L L 2._ a Q 4 4 *.H., X _ ) p 8 > > q q 8 8 p p t 8 # p & & 7 s i - u z m m h w N #X0X&X%X#X",
"CXVXVXCXCXrX#XR.n.n.n.5.3.3.1.3.,.,.,.L OXo.^ / p a s.1     , g B.:.o.r 4 q 8 < q 8 q p , p , # 5 s s 9 z z M z c h h.%X0X%X%X#X",
"VXMXcXcXrX6XR.N.k.m.n.n.5.5.3.3.3.2.,.,.OXd O.g 8 q 1     + f N.:.#.X.! 4 4 2 4 2 2 , < p q t + , 8 i 7 v v m m m B h.%X&X%X%X#X",
"MXcXcX4X5XE.b.c.l.m.k.4.4.n.3.3.3.3.3.,.3.d ..p 7 5 + + 7 n.B.N.y.X.X.d < r 4 ! a q 2 < p 8 s X + 7 8 0 0 v m G m D h.%X&X%X%X#X",
"cX3X3X#XT.T.J.d.c.m.l.k.m.n.n.n.5.5.1.,.1...d q 7 & + +.#XrX7X6Xy._ a 2 4 a ^ ` &.^ r 4 a q d X + 1 s 0 s u v H D D G @X&X&X%X@X",
"MX4X%XT.I.I.d.s.U.N.N.B.B.B.m.n.5.1.3.1.+.g g p 7 & , #.%X7XB.z.O.^ a Q ) ~ ` q.v._ Q Q a q a , + # 8 s u u b m D G D 2.%X%X%X@X",
"ZXtXR.T.K.J.i.a.c.c.U.N.R.B.m.m.k.4.4.@...s 0 5 7 5 , X.n.k.:.o.^ a ) [ } } q.e.f.u.` ~ ! a 4 q # < < p v m m M D D D H @X%X#XM.",
"MX7XT.K.J.I.s.a.P.R.R.N.N.U.c.l.:.4.n...n n - @ & 5 8 q o.o.X.^ ^ _ } q.q.e.p.f.f.e.e.` ) Q a q p < < a b M m m G m m G h.&X#X@X",
"6X~.I.J.D.J.i.d.T.R.N.N.c.P.U.l.4.4.#.d s 7 @ @ @ & 5 , , 8 # 1 o.%.y.v.I.!.^.!.H.p.w.} Q a q 4 a : a 2 p +.M m m D m D H #X@X@X",
"R.T.J.i.S.d.u.u.Y.B.N.N.B.U.l.l.l.B.#.a q @ .   .   X . .       4 f.v.~.9X9X9X9X!.G.e.&.` ^ ^ p a > ) g d f A b z z m D G j.@Xg.",
"E.I.G.D.D.d.i.*.U.N.R.b.z.x.c.l.l.m.k.! ! q @     X X X .     . d v.7X9XqXuXwX/.^.L.r.q.*.&.Q r 4 8 r _ q p s i i i z m D K g.g.",
"B.x.D.S.G.S.u.*.P.8XT.J.P.c.U.l.l.l.k.:.a , .   4 a q & .   O ; y.~.qXqX9XuXiX).Q.Q.H.p.q.| r / r ^ ` / q p p 7 7 i u m G Z 6.g.",
"B.c.d.t.p.p.-.&.a.^.T.T.Y.c.b.N.c.z.l.7XtXn X A DX9X_ 1 X X O 8 v.qXwX).).uXgXgXpXuX/.F.Z.' E ! ! a ! ` 4 g q t 7 - z m m m S g.",
"B.c.s.i.i.-.-.%.;.T.~.~.~.R.N.U.b.c.l.B.BXUXH dXUXDXL.4 , ; @ X.qX^.wXuXuXuXgXgXjXgXpX(.Q.' r.` a ~ ` o.a d p t 7 0 z m G c S g.",
"N.c.s.-.-.&.&.{ %.E.^.8X~.T.R.U.U.P.N.N.N.hX7XfXKXKXDX!.p 7 #X0X9XL.Q.uXuX).iXgXjXjXgX).(.Q.8.4 ! e.! a Q g g s 5 5 0 v m x S 0.",
"c.x.a.&.*.%.$.` ` T.8X8XE.~.E.Y.Y.U.b.x.c.b.R.DXhXqXV.k.B.fXaX7X9XG.H.).).).).uXgXjXjXpXiX(.r.) %.o.T o.a p n i 7 - 0 c z c V j ",
"a.z.;.u.&.| [ ~ ! d.8X8X~.8XE.E.Y.U.U.z.z.x.z.fXKXDXhXhXjXhX8Xz.qXJ.A.F.(.).).).pXgXjXjXiXuXt.C.{ ! ) ^ a p s v u 7 u u z z u V ",
":.a.;.>.&.[ ) R R *.9X8X8X8X8X6XE.R.R.z.a.x.x.c.hXKXKXDXfXY.-.y.^.J.w.C.Q.Q.).wX).pXjXjXiXiXZ.r.~ ` ! _ ^ X.s M u 9 0 9 9 m c V ",
":.z.a.>.=.[ ' R Y ~ 8X8X8X9X^.T.Y.R.U.c.z.z.a.z.b.6X9X~.x.u.&.k.!.S.w. .H.F.Q.wXuXuXpXgXiXuXH.w.| a ) ^ ^ n b b z v 7 7 u z u j ",
":.l.a.-.| } ~ R Y Y ^.qX9X9X~.Y.Y.5XR.z.c.l.z.x.l.z.c.a.i.s.%.c.~.r.=. .w.H.Q.).).uXuXgXuXQ.r.D.` ~ _ Q ^ n s M Z b 7 u u u u y ",
";.l.a.-.| ' ~ R Y r P.eX9X^.T.T.5X6XY.z.b.z.a.z.y.a.a.x.x.>.o.c.!.i.| |  .F.L.Q.).).wXiXwXL.Z.p.) { _ _ X.n b b Z b i 0 u i - y ",
"&.l.y.&.[ ) ~ Y Y r u.eXeX8X~.U.E.Y.b.b.c.l.z.;.a.d.d.s.x.-.y.N.^.d.[ | | =.A./.Q.).wXwXuXL.Z.*.{ *._ O.X.C n b b v t 7 i z - w ",
"$.;.;.&.` ~ R Y Y Y ;.qX9X~.P.Y.~.Y.Y.b.b.z.a.;.d.s.x.i.i.-.:.N.8Xd.&.| =. .w././././././.^.H.e.*.o.X.X.X.f f s n v 7 , 7 u 9 % ",
"` &.%.{ ~ ~ R Y Y ~ ;.qX9XE.P.U.T.Y.U.b.c.z.;.a.b.x.s.S.t.u.z.b.~.G.-.[ &.} | L.wX/.Q.Q.wX/.Q.J.&.O.o.O.n f t n f b 8 5 t 7 9 % ",
"{ %.O.` ~ E R Y ~ ` ;.9X9X8XU.E.I.U.P.x.z.z.z.a.x.P.i.=.t.>.z.Y.~.I.p.-.[ [ } r.wXwX/./././.L.r.*.o.O.X.C p f f g t 5 8 7 7 7 % ",
"[ $.o.! T Y Y T ~ %.u.^.9X^.P.T.P.T.P.P.P.a.a.>.x.J.t.=.| i.b.Y.^.v.x.e.` | [ &.Q.wX/.Q.Q.wXL.*.*._ O.@.n 5 f f f t 1 5 7 7 7 % ",
"[ ` / T Y Y r T ` -.s.P.qX^.T.E.P.P.I.x.x.i.s.u.d.D.t.=.=.-.Y.T.!.^.I.d.*.%.` ` F./.Q.Q.Q.Q.H.e.&.O.o.n s t f t s 7 8 t 7 7 7 $ ",
"[ { ~ T Y U r ~ &.i.d.d.9X~.U.T.D.P.J.D.d.u.u.>.d.p.t.| | ;.~.I.^.!.I.v.u.*.` / &.Q.H.Q.Q.D.Q.p._ X.g X.s 7 f i i 7 & 1 8 7 7 * ",
"=.[ ~ R Y U 3 ) >.s.d.;.eX^.T.I.P.J.J.d.p.i.-.i.i.J.t. .t.&.T.P.T.v.!.I.f.s.` ~ ` C.H.L.H.=.Z.=.^ ^ O.n <.A v t i t & , 7 t y * ",
"=.| [ ` ! R 3 { u.x.*.{ T.T.d.I.J.D.K.s.i.i.e.p.u.i.t.=.=.i.P.P.I.P.v.f.f.d.*.&.} Z.Z.w.w.[ w.=./ / _ O.C 1.Z u i 5 , , 7 t 7 e ",
" .=.-.&.` / ! *.a.a.$.[ &./.Q.K.J.D.J.D.p.t.i.e.D.i.=.=.=.s.P.x.d.I.f.v.d.u.%.e.r.F.w.Z.} | Z.] | &.^ :...C h.Z b 7 7 7 7 t 7 y ",
"| -.*.&.%.o.` *.s.;.` ` / T.!.!.K.D.G.S.i.i.i.S.G.S.t.t.i.a.x.u.u.d.d.d.u.e.e.p.H.H.w.C.' C. .r.w.p.o.X.o.1.|.K b 7 5 5 8 7 8 y ",
"| &.o.o.O.O.&.u.s.&.$.` ` u.!.L.L.J.S.S.G.i.S.p.S.D.D.G.i.P.x.s.u.*.*.s.*.*.p.G.Q.L.t.C. . .8.F.C.r.q.^ o.1.j.H M t 2 1 1 1 , y ",
"} [ ~ ~ o.%.a.x.x.y.&.` ~ ~ Q.K.L.J.S.G.A.S.w.S.C.S.A.D.p.I.s.u.>.&.u.y.o.u.u.H.L.W.H.Z. . . .8.F.p.d.;.#.#.j.K Z t & , , 1 1 y ",
"[ ~ R R ! &.x.b.x.a.;.o.~ r -.Q.^.K.H.A.A.C.w.t.t.t.G.K.i.P.s.*.-.%.u.&.` d.*.G.^.W.L.H.r.w. .] F.F.I.v.y.#.j.K A t , & < 1 & b ",
"} ) R Y T ;.P.b.b.b.a.$.~ Y ~ !.Q.H.C.C.w.C.w.w.=.t.G.K.D.I.d.-.{ e.*.o.%.u.&.J.^.W.!.L.H.Z. .] C.H.!.I.v.k.j.<.<.s , & < 2 & V ",
"| ' R r ) P.E.6XR.b.>.%.` ! ! i.L.A.C.]  . . .] ' w.H.L.S.I.D.t.` -.*.*.s.e.` G.^.^.!.!.f.W.r.w.8.H.W.W.y.k.M.j.<.C , & , , - Z ",
" .( Y 3 -.~.qXqX6XU.a.*.%./ Q T K.Z. .] ] W W E } A.A.H.G.!.S.=.| { %.*.;.&.{ G.I.!.~.^.y.W.H.Q.r.W.W.W.y.y.M.j.<.C 1 , , 1 - V ",
"=.( 3 T P.qXfXqXqX6Xx.z.&.o.Q 3 %.F.C.W W W ' E  .C.S.D.J.^.H.=.[ ` %.u.%.*.*.f.I.!.!.9Xy.W.~.W.W.v.W.v.y.y.0.g.<.C p 8 8 1 e c ",
"=.E 3 ! ~.eXfXfXtX7XY.R.&.&./ 3 T *.H.9.E ] ) E | t.C.A.G.^.L.=.| ` &.;.%.u.*.%.v.!.^.9Xv.V.~.W.~.W.v.y.y.O.O.k.<.C p t t 1 e c ",
"| E 3 %.qXaXfXaXqXqXqX6X:.:.:.! a 3 p.A.' } a ~ *.A.A.A.J.!.T.=.=.$.*.&.%.u.q.f.s.W.W.!.v.v.v.W.^.^.W.s.v.q.O.k.0.X.n s z y % y "
};
